<svg width="1728" height="1117" viewBox="0 0 1728 1117" fill="none" xmlns="http://www.w3.org/2000/svg">
<g clip-path="url(#clip0_68_3)">
<line x1="60.1501" y1="-1" x2="60.1501" y2="1116" stroke="#B9BEC4" stroke-opacity="0.2" stroke-width="0.3"/>
<line y1="58.8504" x2="1728" y2="58.8504" stroke="#B9BEC4" stroke-opacity="0.2" stroke-width="0.3"/>
<line y1="118.85" x2="1728" y2="118.85" stroke="#B9BEC4" stroke-opacity="0.2" stroke-width="0.3"/>
<line y1="178.85" x2="1728" y2="178.85" stroke="#B9BEC4" stroke-opacity="0.2" stroke-width="0.3"/>
<line y1="238.85" x2="1728" y2="238.85" stroke="#B9BEC4" stroke-opacity="0.2" stroke-width="0.3"/>
<line x1="0.000173611" y1="298.85" x2="1728" y2="300.85" stroke="#B9BEC4" stroke-opacity="0.2" stroke-width="0.3"/>
<line y1="358.85" x2="1728" y2="358.85" stroke="#B9BEC4" stroke-opacity="0.2" stroke-width="0.3"/>
<line y1="418.85" x2="1728" y2="418.85" stroke="#B9BEC4" stroke-opacity="0.2" stroke-width="0.3"/>
<line y1="478.85" x2="1728" y2="478.85" stroke="#B9BEC4" stroke-opacity="0.2" stroke-width="0.3"/>
<line y1="538.85" x2="1728" y2="538.85" stroke="#B9BEC4" stroke-opacity="0.2" stroke-width="0.3"/>
<line y1="598.851" x2="1728" y2="598.851" stroke="#B9BEC4" stroke-opacity="0.2" stroke-width="0.3"/>
<line y1="658.85" x2="1728" y2="658.85" stroke="#B9BEC4" stroke-opacity="0.2" stroke-width="0.3"/>
<line y1="718.851" x2="1728" y2="718.851" stroke="#B9BEC4" stroke-opacity="0.2" stroke-width="0.3"/>
<line y1="778.851" x2="1728" y2="778.851" stroke="#B9BEC4" stroke-opacity="0.2" stroke-width="0.3"/>
<line y1="838.851" x2="1728" y2="838.851" stroke="#B9BEC4" stroke-opacity="0.2" stroke-width="0.3"/>
<line y1="898.851" x2="1728" y2="898.851" stroke="#B9BEC4" stroke-opacity="0.2" stroke-width="0.3"/>
<line y1="958.851" x2="1728" y2="958.851" stroke="#B9BEC4" stroke-opacity="0.2" stroke-width="0.3"/>
<line y1="1018.85" x2="1728" y2="1018.85" stroke="#B9BEC4" stroke-opacity="0.2" stroke-width="0.3"/>
<line y1="1078.85" x2="1728" y2="1078.85" stroke="#B9BEC4" stroke-opacity="0.2" stroke-width="0.3"/>
<line x1="120.15" y1="-1" x2="120.15" y2="1116" stroke="#B9BEC4" stroke-opacity="0.2" stroke-width="0.3"/>
<line x1="180.15" y1="-1" x2="180.15" y2="1116" stroke="#B9BEC4" stroke-opacity="0.2" stroke-width="0.3"/>
<line x1="240.15" y1="-1" x2="240.15" y2="1116" stroke="#B9BEC4" stroke-opacity="0.2" stroke-width="0.3"/>
<line x1="300.15" y1="-1" x2="300.15" y2="1116" stroke="#B9BEC4" stroke-opacity="0.2" stroke-width="0.3"/>
<line x1="360.15" y1="-1" x2="360.15" y2="1116" stroke="#B9BEC4" stroke-opacity="0.2" stroke-width="0.3"/>
<line x1="420.15" y1="-1" x2="420.15" y2="1116" stroke="#B9BEC4" stroke-opacity="0.2" stroke-width="0.3"/>
<line x1="480.15" y1="-1" x2="480.15" y2="1116" stroke="#B9BEC4" stroke-opacity="0.2" stroke-width="0.3"/>
<line x1="540.15" y1="-1" x2="540.15" y2="1116" stroke="#B9BEC4" stroke-opacity="0.2" stroke-width="0.3"/>
<line x1="600.15" y1="-1" x2="600.15" y2="1116" stroke="#B9BEC4" stroke-opacity="0.2" stroke-width="0.3"/>
<line x1="660.15" y1="-1" x2="660.15" y2="1116" stroke="#B9BEC4" stroke-opacity="0.2" stroke-width="0.3"/>
<line x1="720.15" y1="-1" x2="720.151" y2="1116" stroke="#B9BEC4" stroke-opacity="0.2" stroke-width="0.3"/>
<line x1="780.15" y1="-1" x2="780.15" y2="1116" stroke="#B9BEC4" stroke-opacity="0.2" stroke-width="0.3"/>
<line x1="840.15" y1="-1" x2="840.15" y2="1116" stroke="#B9BEC4" stroke-opacity="0.2" stroke-width="0.3"/>
<line x1="900.15" y1="-1" x2="900.15" y2="1116" stroke="#B9BEC4" stroke-opacity="0.2" stroke-width="0.3"/>
<line x1="960.15" y1="-1" x2="960.15" y2="1116" stroke="#B9BEC4" stroke-opacity="0.2" stroke-width="0.3"/>
<line x1="1020.15" y1="-1" x2="1020.15" y2="1116" stroke="#B9BEC4" stroke-opacity="0.2" stroke-width="0.3"/>
<line x1="1080.15" y1="-1" x2="1080.15" y2="1116" stroke="#B9BEC4" stroke-opacity="0.2" stroke-width="0.3"/>
<line x1="1140.15" y1="-1" x2="1140.15" y2="1116" stroke="#B9BEC4" stroke-opacity="0.2" stroke-width="0.3"/>
<line x1="1200.15" y1="-1" x2="1200.15" y2="1116" stroke="#B9BEC4" stroke-opacity="0.2" stroke-width="0.3"/>
<line x1="1260.15" y1="-1" x2="1260.15" y2="1116" stroke="#B9BEC4" stroke-opacity="0.2" stroke-width="0.3"/>
<line x1="1320.15" y1="-1" x2="1320.15" y2="1116" stroke="#B9BEC4" stroke-opacity="0.2" stroke-width="0.3"/>
<line x1="1380.15" y1="-1" x2="1380.15" y2="1116" stroke="#B9BEC4" stroke-opacity="0.2" stroke-width="0.3"/>
<line x1="1440.15" y1="-1" x2="1440.15" y2="1116" stroke="#B9BEC4" stroke-opacity="0.2" stroke-width="0.3"/>
<line x1="1500.15" y1="-1" x2="1500.15" y2="1117" stroke="#B9BEC4" stroke-opacity="0.2" stroke-width="0.3"/>
<line x1="1560.15" y1="-1" x2="1560.15" y2="1117" stroke="#B9BEC4" stroke-opacity="0.2" stroke-width="0.3"/>
<line x1="1620.15" y1="-1" x2="1620.15" y2="1117" stroke="#B9BEC4" stroke-opacity="0.2" stroke-width="0.3"/>
<line x1="1680.15" y1="-1" x2="1680.15" y2="1117" stroke="#B9BEC4" stroke-opacity="0.2" stroke-width="0.3"/>
</g>
<defs>
<clipPath id="clip0_68_3">
<rect width="1728" height="1117" fill="white"/>
</clipPath>
</defs>
</svg>
